<svg id="calculator" width="28" height="28" xmlns="http://www.w3.org/2000/svg" viewBox="0 0 28 28"><defs><style>.cls-1{fill:#fff;fill-rule:evenodd;}</style></defs><title>calculator</title><path class="cls-1" d="M24.3473,28H3.6524A3.6619,3.6619,0,0,1,0,24.3371V3.6627A3.662,3.662,0,0,1,3.6524,0h20.695A3.6617,3.6617,0,0,1,28,3.6627V24.3371A3.6619,3.6619,0,0,1,24.3473,28ZM13.27,1.4651H3.6524A2.1968,2.1968,0,0,0,1.4611,3.6627v9.6047H13.27Zm0,13.2673H1.4611v9.6047a2.1969,2.1969,0,0,0,2.1913,2.1978H13.27Zm13.2694-11.07a2.197,2.197,0,0,0-2.1915-2.1976H14.7305V13.2674H26.5389Zm0,11.07H14.7305V26.5349h9.6169a2.1973,2.1973,0,0,0,2.1916-2.1978ZM23.25,23.0241l-5.47,0a.7326.7326,0,0,1,0-1.4652l5.47,0a.7326.7326,0,0,1,0,1.4652Zm0-3.1131-5.47,0a.7326.7326,0,0,1,0-1.4651h5.47a.7325.7325,0,0,1,0,1.465ZM17.1694,6.9494h2.6153V4.3265a.7305.7305,0,1,1,1.461,0V6.9492H23.861a.7325.7325,0,0,1,0,1.465H21.2457v2.6227a.7305.7305,0,1,1-1.461,0V8.4144H17.1694a.7325.7325,0,0,1,0-1.465ZM4.7432,20.0028l5.47,0a.7326.7326,0,0,1,0,1.4652l-5.4695,0a.7326.7326,0,0,1,0-1.4652ZM6.4448,7.6816,4.1732,5.4036A.7315.7315,0,0,1,5.2063,4.3677l2.2714,2.278L9.75,4.3677a.7314.7314,0,0,1,1.0329,1.0359L8.5106,7.6816,10.7827,9.96A.7315.7315,0,1,1,9.75,10.9959L7.4777,8.7174,5.2056,10.9957A.7315.7315,0,1,1,4.1726,9.96Z" transform="translate(0.0001 0.0001)"/></svg>