<svg id="calenda1" width="19" height="19" xmlns="http://www.w3.org/2000/svg" viewBox="0 0 19.0001 19"><defs><style>.cls-1{fill:#fff;fill-rule:evenodd;}</style></defs><title>calendar2</title><path class="cls-1" d="M17.2583,19H1.7416A1.7311,1.7311,0,0,1,0,17.2868V3.8173A1.7294,1.7294,0,0,1,1.6911,2.1154V4.4139A1.899,1.899,0,0,0,3.6152,6.29h1.214a1.909,1.909,0,0,0,1.9354-1.876V2.1073h5.4707V4.4139A1.909,1.909,0,0,0,14.1709,6.29h1.2138a1.899,1.899,0,0,0,1.9241-1.876V2.1154A1.7293,1.7293,0,0,1,19,3.8173v13.47A1.7332,1.7332,0,0,1,17.2583,19Zm-.5133-2.5521V9.4906a.7449.7449,0,0,0-.7529-.7365H2.9747a.7448.7448,0,0,0-.753.7365v6.9573a.7449.7449,0,0,0,.753.7364H15.9921a.745.745,0,0,0,.753-.7364Zm-2.6288-.2688H12.577a.4361.4361,0,0,1-.4411-.4311V14.2435a.4361.4361,0,0,1,.4411-.4311h1.5392a.4359.4359,0,0,1,.4406.4311V15.748A.4359.4359,0,0,1,14.1162,16.1791Zm0-3.761H12.577a.4361.4361,0,0,1-.4411-.4312V10.4821a.4361.4361,0,0,1,.4411-.4309h1.539a.436.436,0,0,1,.4408.4309v1.5048A.436.436,0,0,1,14.116,12.4181ZM10.27,16.1791H8.7305A.4361.4361,0,0,1,8.29,15.748V14.2435a.436.436,0,0,1,.4409-.4311H10.27a.4359.4359,0,0,1,.4406.4311V15.748A.436.436,0,0,1,10.27,16.1791Zm0-3.761H8.7305a.4361.4361,0,0,1-.4409-.4312V10.4821a.4361.4361,0,0,1,.4409-.4309H10.27a.436.436,0,0,1,.4406.4309v1.5048A.436.436,0,0,1,10.27,12.4181ZM6.423,16.1791H4.8839a.4361.4361,0,0,1-.4408-.4311V14.2435a.436.436,0,0,1,.4408-.4311H6.423a.436.436,0,0,1,.441.4311V15.748A.436.436,0,0,1,6.423,16.1791Zm0-3.761H4.8839a.4361.4361,0,0,1-.4408-.4312V10.4821a.4361.4361,0,0,1,.4408-.4309H6.423a.4361.4361,0,0,1,.441.4309v1.5048A.4361.4361,0,0,1,6.423,12.4181Zm8.9331-7.3605H14.1555a.6523.6523,0,0,1-.66-.6449V.645a.6524.6524,0,0,1,.66-.645h1.2006a.6523.6523,0,0,1,.66.645V4.4127A.6522.6522,0,0,1,15.3561,5.0576Zm-10.5446,0H3.6109a.6523.6523,0,0,1-.66-.6449V.645A.6524.6524,0,0,1,3.6109,0H4.8115a.6524.6524,0,0,1,.66.645V4.4127A.6523.6523,0,0,1,4.8115,5.0576Z" transform="translate(0.0001)"/></svg>