<svg id="calendar" width="15" height="15" xmlns="http://www.w3.org/2000/svg" viewBox="0 0 14.9972 14.9967"><defs><style>.cls-1{fill:#202020;fill-rule:evenodd;}</style></defs><title>calendar</title><path class="cls-1" d="M14.5491,14.9975H.45a.4555.4555,0,0,1-.4484-.4633V1.8918A.4561.4561,0,0,1,.45,1.4289H2.8577V2.7646c0,.4462.4779.8064,1.0719.8064h.7128c.592,0,1.0719-.3574,1.0719-.8064V1.4289H9.2852V2.7646c0,.4462.4777.8064,1.0719.8064H11.07c.5919,0,1.0719-.3574,1.0719-.8064V1.4289h2.4073a.4562.4562,0,0,1,.4492.4629V14.5342A.456.456,0,0,1,14.5491,14.9975ZM2.8577,6.4285H.7153V8.57H2.8577Zm0,2.8558H.7153v2.143H2.8577Zm0,2.857H.7153v1.8751a.289.289,0,0,0,.307.2675H2.8577ZM5.7143,6.4285H3.5719V8.57H5.7143Zm0,2.8558H3.5719v2.143H5.7143Zm0,2.857H3.5719v2.1426H5.7143ZM8.5709,6.4285H6.4285V8.57H8.5709Zm0,5.7128H6.4285v2.1426H8.5709Zm2.8568-5.7128H9.2852V8.57h2.1425Zm0,2.8558H9.2852v2.143h2.1425Zm0,2.857H9.2852v2.1426h2.1425Zm2.8566-5.7128H12.1418V8.57h2.1425Zm0,2.8558H12.1418v2.143h2.1425Zm0,2.857H12.1418v2.1426h1.8353a.29.29,0,0,0,.3072-.2675ZM10.7137,2.857a.7142.7142,0,0,1-.7144-.7132V.714a.7142.7142,0,0,1,1.4284,0v1.43A.7136.7136,0,0,1,10.7137,2.857Zm-6.2491,0H4.1074a.5362.5362,0,0,1-.5355-.5378V.5377A.5348.5348,0,0,1,4.1074.0008h.3572A.5358.5358,0,0,1,5,.5377V2.32A.535.535,0,0,1,4.4646,2.857Z" transform="translate(-0.0011 -0.0008)"/></svg>