<svg id="cart" xmlns="http://www.w3.org/2000/svg" viewBox="0 0 28.0002 25"><defs><style>.cls-1{fill:none;fill-rule:evenodd;}</style></defs><title>cart</title><path class="cls-1" d="M27.9162,6.5212l-4.73,10.7a1.0383,1.0383,0,0,1-.95.611h-13a1.0331,1.0331,0,0,1-1.0013-.747L4.0052,2.0374H1.0358A1.0308,1.0308,0,0,1,0,1.018,1.03,1.03,0,0,1,1.0358-.0006H4.7822a1.0338,1.0338,0,0,1,1.0013.747l4.23,15.0481H21.5457l3.8327-8.6619H12.6028a1.0191,1.0191,0,1,1,0-2.0379H26.9666a1.0325,1.0325,0,0,1,.8632.4584A1.0169,1.0169,0,0,1,27.9162,6.5212ZM8.2522,20.38a2.31,2.31,0,1,1-2.3479,2.31A2.3317,2.3317,0,0,1,8.2522,20.38Zm14.5193,0a2.3416,2.3416,0,0,1,2.5033,2.14,2.2814,2.2814,0,0,1-.57,1.6817,2.36,2.36,0,0,1-1.6056.7979h-.1726a2.3118,2.3118,0,0,1-.1554-4.62Z" transform="translate(0 0.0006)"/></svg>