<svg id="comment" xmlns="http://www.w3.org/2000/svg" viewBox="0 0 24.9953 24.9951"><defs><style>.cls-1{fill:none;fill-rule:evenodd;}</style></defs><title>comment</title><path class="cls-1" d="M16.405,13.28H8.594a.7811.7811,0,1,0,0,1.5621h7.811a.7811.7811,0,1,0,0-1.5621Zm1.5622-4.6861H7.0318a.7808.7808,0,1,0,0,1.5616H17.9672a.7808.7808,0,1,0,0-1.5616ZM12.5.0015C5.5978.0015.002,4.8972.002,10.937a10.4684,10.4684,0,0,0,4.6864,8.5291v5.5305l5.4749-3.322a14.3345,14.3345,0,0,0,2.3363.1979c6.9027,0,12.4977-4.8962,12.4977-10.9355S19.4023.0015,12.5.0015Zm0,20.3085a12.615,12.615,0,0,1-2.64-.2866l-3.6776,2.211.0493-3.6232A9.0567,9.0567,0,0,1,1.5641,10.937C1.5641,5.7607,6.46,1.5635,12.5,1.5635S23.4352,5.7607,23.4352,10.937,18.539,20.31,12.5,20.31Z" transform="translate(-0.002 -0.0015)"/></svg>