<svg id="facebook" width="12" height="23" xmlns="http://www.w3.org/2000/svg" viewBox="0 0 12.2894 22.9246"><defs><style>.cls-1{fill:none;fill-rule:evenodd;}</style></defs><title>facebook</title><path class="cls-1" d="M11.8262,4.5036,9.84,4.5044c-1.3687,0-1.6191.5378-1.6191,1.5974V8.3071h3.4662a.4634.4634,0,0,1,.328.1372.4694.4694,0,0,1,.1357.3306L12.15,12.5438a.4653.4653,0,0,1-.4635.4673H8.221v9.51a.4651.4651,0,0,1-.4634.4673H3.8908a.4648.4648,0,0,1-.4635-.4673v-9.51H.4636A.4655.4655,0,0,1,0,12.5438V8.7749a.4654.4654,0,0,1,.4635-.4678H3.4275V5.7057c0-3.4273,2.14-5.642,5.4514-5.642l2.9479.0049A.4658.4658,0,0,1,12.29.536v3.5A.4656.4656,0,0,1,11.8262,4.5036Z" transform="translate(-0.0001 -0.0637)"/></svg>