<svg id="fuel" width="15" height="16" xmlns="http://www.w3.org/2000/svg" viewBox="0 0 14.2378 15.5594"><defs><style>.cls-1{fill:#202020;fill-rule:evenodd;}</style></defs><title>fuel</title><path class="cls-1" d="M13.267,13.2893h-.7151a.9191.9191,0,0,1-.9028-.9726v-4.23c0-.1555-.1942-.3078-.3916-.3078h-.5792v6.46c0,.3273-.2621.3342-.6989.3407-.2362.0033-.56.0065-.919.0065H2.5886c-.3559,0-.6827-.0032-.9189-.0065-.4369-.01-.699-.0134-.699-.3407V1.62A1.62,1.62,0,0,1,2.5886-.0009H9.06A1.62,1.62,0,0,1,10.6783,1.62V7.13h.5792a1.0173,1.0173,0,0,1,1.0387.9563v4.23c0,.1495.068.3241.2557.3241h.7151a.3247.3247,0,0,0,.3236-.3241V7.4548h-.6472a.65.65,0,0,1-.6471-.6486V5.25a.39.39,0,0,1,.3882-.3888h.9061c0-.2332-.1262-.3887-.3462-.642l-.9416-1.089a.3361.3361,0,0,1,.2912-.5479.1872.1872,0,0,1,.152.0684l.99,1.1443a1.57,1.57,0,0,1,.5015,1.0658v7.4556A.97.97,0,0,1,13.267,13.2893Zm.3236-7.78h-.6471V6.8062h.6471Zm-4.8538.9726H2.9122a.3248.3248,0,0,1-.3236-.3241V1.9443A.3251.3251,0,0,1,2.9122,1.62H8.7368a.325.325,0,0,1,.3236.3245V6.1581A.3247.3247,0,0,1,8.7368,6.4822Zm2.9124,8.7518a.3249.3249,0,0,1-.3237.3245H.3235a.3241.3241,0,0,1,0-.6481h11.002A.3245.3245,0,0,1,11.6492,15.234Z" transform="translate(0 0.0009)"/></svg>