<svg id="gear" width="18" height="12" xmlns="http://www.w3.org/2000/svg" viewBox="0 0 17.0238 11.0418"><defs><style>.cls-1{fill:#212121;fill-rule:evenodd;}</style></defs><title>gear</title><path class="cls-1" d="M2.1279,0A2.1279,2.1279,0,1,1,0,2.1275,2.1279,2.1279,0,0,1,2.1279,0Z" transform="translate(0 0.0004)"/><path class="cls-1" d="M8.4544,0a2.1279,2.1279,0,1,1-2.128,2.1279A2.1279,2.1279,0,0,1,8.4544,0Z" transform="translate(0 0.0004)"/><path class="cls-1" d="M14.8959,0a2.1279,2.1279,0,1,1-2.128,2.1279A2.1278,2.1278,0,0,1,14.8959,0Z" transform="translate(0 0.0004)"/><path class="cls-1" d="M2.1279,6.786A2.1277,2.1277,0,1,1,0,8.9139,2.1279,2.1279,0,0,1,2.1279,6.786Z" transform="translate(0 0.0004)"/><path class="cls-1" d="M8.4544,6.786a2.1277,2.1277,0,1,1-2.128,2.1279A2.1279,2.1279,0,0,1,8.4544,6.786Z" transform="translate(0 0.0004)"/><path class="cls-1" d="M1.7254,6.0964V5.0611H15.5286V6.0964Z" transform="translate(0 0.0004)"/><path class="cls-1" d="M2.7606,7.4764H1.7254V2.9906H2.7606Z" transform="translate(0 0.0004)"/><path class="cls-1" d="M8.972,7.4764H7.9368V2.9906H8.972Z" transform="translate(0 0.0004)"/><path class="cls-1" d="M15.5286,5.1759H14.4933V2.9906h1.0353Z" transform="translate(0 0.0004)"/></svg>