<svg id="google" widht="24" height="25" xmlns="http://www.w3.org/2000/svg" viewBox="0 0 23.7865 24.1312"><defs><style>.cls-1{fill:none;fill-rule:evenodd;}</style></defs><title>google</title><path class="cls-1" d="M19.0825,25H4.2159a4.4921,4.4921,0,0,1-4.46-4.5249V5.3931A4.492,4.492,0,0,1,4.2159.8686H19.0825a4.492,4.492,0,0,1,4.46,4.5245V20.4749A4.4921,4.4921,0,0,1,19.0825,25ZM8.63,5.5217c-2.1255,0-4.1255,1.6329-4.1255,3.5255a3.45,3.45,0,0,0,3.6114,3.4966l.4386-.0155a1.9959,1.9959,0,0,0-.241.8989,1.88,1.88,0,0,0,.6452,1.3288l-.8216.0073c-2.633-.0016-4.66,1.7013-4.66,3.4644,0,1.7375,2.2214,2.8245,4.8543,2.8245,3.0015,0,4.6594-1.7261,4.6594-3.464a3.3646,3.3646,0,0,0-1.6564-3.1253c-.4283-.309-1.2486-1.0565-1.2486-1.4974,0-.5153.1437-.77.91-1.3768a3.2434,3.2434,0,0,0,1.3379-2.5114A2.87,2.87,0,0,0,10.8049,6.3h1.5027l1.0649-.778Zm11.94,4.3959H17.5959V6.9014H16.1107V9.9176H13.1359v1.5368h2.9748v3.0113h1.4852V11.4544h2.9733ZM8.8023,12.0516c-1.2218-.0358-2.3833-1.3854-2.5945-3.0133S6.8161,6.1662,8.0363,6.202c1.221.0374,2.3818,1.3426,2.5931,2.969C10.8419,10.8,10.021,12.09,8.8023,12.0516Zm2.9122,5.239a2.2262,2.2262,0,0,1,.0582.4966c0,1.4033-.8908,2.5-3.4488,2.5-1.82,0-3.1345-1.1675-3.1345-2.5728,0-1.3772,1.63-2.5216,3.4495-2.5025a3.929,3.929,0,0,1,1.18.193C10.8064,16.1,11.5157,16.4955,11.7145,17.2906Z" transform="translate(0.244 -0.8686)"/></svg>