<svg id="heart" xmlns="http://www.w3.org/2000/svg" viewBox="0 0 27.6408 24.2489"><defs><style>.cls-1{fill:none;fill-rule:evenodd;}</style></defs><title>heart</title><path class="cls-1" d="M28.15,10.9436a11.81,11.81,0,0,1-3.8579,6.0956l-8.8564,7.5346a1.2543,1.2543,0,0,1-1.6351-.0013L4.9462,17.04a11.824,11.824,0,0,1-3.86-6.0976A7.43,7.43,0,0,1,.846,8.08,7.8741,7.8741,0,0,1,8.5755.6273a7.6641,7.6641,0,0,1,6.0426,3.3952A7.6654,7.6654,0,0,1,20.6606.6273,7.8735,7.8735,0,0,1,28.39,8.08,7.46,7.46,0,0,1,28.15,10.9436Zm-1.8582-2.53c-.2743-2.8656-2.2856-5.6705-5.629-5.6705-2.3281,0-4.2247,1.9126-5.0709,3.81L14.62,8.7307l-.9716-2.1776c-.8463-1.8963-2.7439-3.81-5.0709-3.81-3.3423,0-5.3547,2.8049-5.6152,5.5744l-.017.1112a5.5451,5.5451,0,0,0,.2063,2.0045,9.7,9.7,0,0,0,3.1807,5.0033l8.2867,7.05,8.2887-7.0514a9.6948,9.6948,0,0,0,3.1786-5.0008A5.5218,5.5218,0,0,0,26.2917,8.4135Z" transform="translate(-0.7975 -0.6273)"/></svg>