<svg id="instagram" width="23" height="25" xmlns="http://www.w3.org/2000/svg" viewBox="0 0 22.682 23.6928"><defs><style>.cls-1{fill:none;fill-rule:evenodd;}</style></defs><title>instagram</title><path class="cls-1" d="M17.5661,24.9872H5.782A5.5806,5.5806,0,0,1,.3329,19.2955V6.9865A5.5807,5.5807,0,0,1,5.782,1.2944H17.5661a5.5806,5.5806,0,0,1,5.4488,5.6921v12.309A5.5805,5.5805,0,0,1,17.5661,24.9872ZM11.674,5.8018a7.1958,7.1958,0,0,0-7.0256,7.34A7.1953,7.1953,0,0,0,11.674,20.48,7.1954,7.1954,0,0,0,18.7,13.1414,7.196,7.196,0,0,0,11.674,5.8018Zm7.1937-2.6062a2.1262,2.1262,0,0,0-2.076,2.1686,2.078,2.078,0,1,0,4.152,0A2.1261,2.1261,0,0,0,18.8677,3.1956Zm-7.1937,15.71a5.6526,5.6526,0,0,1-5.5193-5.7645A5.6532,5.6532,0,0,1,11.674,7.3757a5.653,5.653,0,0,1,5.5193,5.7657A5.6525,5.6525,0,0,1,11.674,18.9059Z" transform="translate(-0.3329 -1.2944)"/></svg>