<svg id="linkedin" width="24" height="25" xmlns="http://www.w3.org/2000/svg" viewBox="0 0 23.7865 24.1312"><defs><style>.cls-1{fill:none;fill-rule:evenodd;}</style></defs><title>linkedin</title><path class="cls-1" d="M22.4123,25H2.14A1.7444,1.7444,0,0,1,.3824,23.27V2.5975A1.7435,1.7435,0,0,1,2.14.8686H22.4123a1.7427,1.7427,0,0,1,1.7566,1.7289V23.27A1.7434,1.7434,0,0,1,22.4123,25ZM4,21.0676H7.5937V10.1728H4ZM5.82,4.92A1.8864,1.8864,0,1,0,5.773,8.6849h.0241A1.887,1.887,0,1,0,5.82,4.92Zm14.7292,9.9c0-3.348-1.7731-4.9039-4.1378-4.9039a3.56,3.56,0,0,0-3.2374,1.801v-1.545H9.5812c.047,1.0219,0,10.8948,0,10.8948h3.5923V14.9827a2.4651,2.4651,0,0,1,.12-.8826,1.9651,1.9651,0,0,1,1.8432-1.3251c1.2992,0,1.82.999,1.82,2.4638v5.8288h3.593Zm-7.3752-3.1029v.0342h-.0232C13.1568,11.7418,13.1655,11.73,13.1738,11.7178Z" transform="translate(-0.3824 -0.8686)"/></svg>