<svg id="odometer" width="18" height="12" xmlns="http://www.w3.org/2000/svg" viewBox="0 0 18 12.0001"><defs><style>.cls-1{fill:#202020;fill-rule:evenodd;}</style></defs><title>odometer</title><path class="cls-1" d="M16.9453,10.9084H16.418a.5364.5364,0,0,1-.5274-.5455V3.8176a.5366.5366,0,0,1,.5274-.5455h.5273A1.0733,1.0733,0,0,1,18,4.3631V9.8174A1.0731,1.0731,0,0,1,16.9453,10.9084Zm-3.29-1.3922-1.0547,2.1816A.5262.5262,0,0,1,12.1289,12H6.8554a.517.517,0,0,1-.3728-.16L4.3732,9.6578a.5541.5541,0,0,1-.1545-.3855V3.8176a.5539.5539,0,0,1,.1545-.3855L5.4279,2.341a.5188.5188,0,0,1,.3728-.16h.5274V1.09H5.8007A.5361.5361,0,0,1,5.2734.5449a.536.536,0,0,1,.5273-.5455h5.2735a.5359.5359,0,0,1,.5273.5455.5361.5361,0,0,1-.5273.5451h-.5274V2.181h.5274a.5188.5188,0,0,1,.3728.16l.9.9311h.8363a.5365.5365,0,0,1,.5274.5455v.5455h1.125V9.2723h-1.125A.5636.5636,0,0,1,13.6553,9.5162ZM10.02,6.5447H8.7635l.673-1.3922a.5543.5543,0,0,0-.2358-.732.52.52,0,0,0-.7076.2438L7.4384,6.8464a.5453.5453,0,0,0,.4717.7894H9.1662L8.4931,9.028a.5544.5544,0,0,0,.2359.732.52.52,0,0,0,.7075-.2438l1.0547-2.1817A.5456.5456,0,0,0,10.02,6.5447Zm-7.91,2.7276V7.09H1.0546V9.2723a.5361.5361,0,0,1-.5273.5451A.5361.5361,0,0,1,0,9.2723V3.8176a.5365.5365,0,0,1,.5273-.5455.5364.5364,0,0,1,.5273.5455V5.9992H2.1093V3.8176a.5365.5365,0,0,1,.5274-.5455H3.164V9.8174H2.6367A.5362.5362,0,0,1,2.1093,9.2723Z" transform="translate(0 0.0006)"/></svg>