<svg id="phone" width="15" height="18" xmlns="http://www.w3.org/2000/svg" viewBox="0 0 15.0004 18.0003"><defs><style>.cls-1{fill:#fff;fill-rule:evenodd;}</style></defs><title>phone</title><path class="cls-1" d="M15,15.4751a2.3147,2.3147,0,0,1-.8316,1.3331,4.1176,4.1176,0,0,1-3.0108,1.1879c-1.3763-.0577-4.9892-3.3906-6.91-5.651S-.1111,5.1871.0035,3.6512,1.9821.1158,3.2724,0C4.1039.2606,5.4515,4.173,5.48,5.1871c-.086.4347-.6881.29-1.233.7246a2.0162,2.0162,0,0,0-.7741,1.3911c0,.6955,1.5484,2.7821,2.1219,3.5354s2.38,2.985,3.2114,2.8689.9462-.8831,1.4337-1.333C10.9,11.7656,14.2258,14.4607,15,15.4751Z" transform="translate(0.0004 0.0003)"/></svg>