<svg id="pinterest" width="18" height="24" xmlns="http://www.w3.org/2000/svg" viewBox="0 0 18.3619 23.9852"><defs><style>.cls-1{fill:none;fill-rule:evenodd;}</style></defs><title>pinterest</title><path class="cls-1" d="M10.5739,17.5812c-1.4372-.1131-2.04-.8365-3.1667-1.5319-.62,3.3016-1.3768,6.468-3.619,8.1217-.6921-4.9911,1.0163-8.7392,1.81-12.7186C4.245,9.1384,5.7605,4.4816,8.6135,5.63c3.51,1.411-3.04,8.6024,1.3572,9.5,4.5915.9379,6.4658-8.0948,3.6189-11.0324C9.4759-.1443,1.6153,4,2.5819,10.0731c.2353,1.4847,1.7447,1.9354.6031,3.9843C.5523,13.4647-.2333,11.3542-.1322,8.5412A8.9336,8.9336,0,0,1,7.86.2665c4.9579-.5639,9.6113,1.8494,10.2538,6.5889C18.8367,12.2047,15.8753,17.9981,10.5739,17.5812Z" transform="translate(0.1407 -0.1858)"/></svg>