<svg id="search" width="24" height="24" xmlns="http://www.w3.org/2000/svg" viewBox="0 0 23.9884 23.9899"><defs><style>.cls-1{fill:#fff;fill-rule:evenodd;}</style></defs><title>search</title><path class="cls-1" d="M23.7624,22.6847l-6.1936-6.0955A9.7957,9.7957,0,0,0,20.187,9.9327,10.0145,10.0145,0,0,0,10.0934,0,10.0133,10.0133,0,0,0,.0007,9.9327a10.0132,10.0132,0,0,0,10.0927,9.9324,10.1533,10.1533,0,0,0,6.3526-2.2178l6.2175,6.1187a.7853.7853,0,0,0,1.098,0A.757.757,0,0,0,23.7624,22.6847Zm-13.669-4.3482a8.4726,8.4726,0,0,1-8.54-8.4038,8.4728,8.4728,0,0,1,8.54-8.4042,8.4726,8.4726,0,0,1,8.54,8.4042A8.4725,8.4725,0,0,1,10.0934,18.3365Z" transform="translate(-0.0007 0.0001)"/></svg>