<svg id="twitter" width="26" height="23" xmlns="http://www.w3.org/2000/svg" viewBox="0 0 25.7691 21.3153"><defs><style>.cls-1{fill:none;fill-rule:evenodd;}</style></defs><title>twitter</title><path class="cls-1" d="M22.86,6.5753l.0173.697c0,7.1128-5.317,15.3138-15.0406,15.3138A14.7838,14.7838,0,0,1-.2671,20.1688a11.0272,11.0272,0,0,0,1.2614.0733A10.4892,10.4892,0,0,0,7.5591,17.94a5.308,5.308,0,0,1-4.9372-3.7388A5.1823,5.1823,0,0,0,5.01,14.11,5.3655,5.3655,0,0,1,.77,8.8306V8.7635A5.2118,5.2118,0,0,0,3.1644,9.44,5.4541,5.4541,0,0,1,1.5282,2.2548,14.9225,14.9225,0,0,0,12.4241,7.8784a5.5093,5.5093,0,0,1-.1369-1.2257,5.3358,5.3358,0,0,1,5.2871-5.3819,5.2273,5.2273,0,0,1,3.8578,1.7005,10.5294,10.5294,0,0,0,3.3591-1.3064,5.3964,5.3964,0,0,1-2.3244,2.9759,10.4332,10.4332,0,0,0,3.0352-.848A10.75,10.75,0,0,1,22.86,6.5753Z" transform="translate(0.2671 -1.2708)"/></svg>