<svg id="youtube" width="21" height="25" xmlns="http://www.w3.org/2000/svg" viewBox="0 0 21.3703 24.3926"><defs><style>.cls-1{fill:none;fill-rule:evenodd;}</style></defs><title>youtube</title><path class="cls-1" d="M20.1348,23.4732a3.641,3.641,0,0,1-1.11.6713,3.793,3.793,0,0,1-1.3666.2451H3.3066a3.7439,3.7439,0,0,1-1.35-.2451,3.6165,3.6165,0,0,1-1.1116-.6713,3.2889,3.2889,0,0,1-.7615-.995,2.7342,2.7342,0,0,1-.2785-1.2339V14.0537a2.764,2.764,0,0,1,.28-1.22,3.0845,3.0845,0,0,1,.7616-.999,3.8431,3.8431,0,0,1,1.1116-.6721,3.607,3.607,0,0,1,1.3505-.2536H17.659a3.67,3.67,0,0,1,1.358.2536,3.8344,3.8344,0,0,1,1.1189.6721,3.0536,3.0536,0,0,1,.76.999,2.7614,2.7614,0,0,1,.2785,1.22v7.1906a2.7193,2.7193,0,0,1-.28,1.2339A3.1905,3.1905,0,0,1,20.1348,23.4732ZM6.0287,13.3161H1.2758V14.43H2.799v7.6172H4.2678V14.4625H6.0287ZM9.611,15.5755h-1.47v4.0486c0,.2935.0025.5211.0135.6778.01.16-.011.2609-.0641.3041a.5615.5615,0,0,1-.3782.3847c-.2033.0794-.361-.0342-.4708-.3521a.7825.7825,0,0,1-.0147-.3184c.0111-.1714.0147-.392.0147-.666l-.0307-4.0787H5.7393l.0344,4.0156c0,.3151-.0074.5781-.0186.7926a1.9142,1.9142,0,0,0,.0186.482c.02.1779.0393.3636.0615.5663a.63.63,0,0,0,.3057.4836,1.0866,1.0866,0,0,0,.5964.1653,1.9623,1.9623,0,0,0,.674-.1172,2.37,2.37,0,0,0,.6063-.3167,1.3644,1.3644,0,0,0,.4068-.4352l-.0284.8015,1.215.031Zm4.7492,1.262a1.4816,1.4816,0,0,0-.6691-1.376,1.0175,1.0175,0,0,0-.5126-.1311,2.1435,2.1435,0,0,0-1.2162.5076V13.3161H10.4909v8.6651l1.2174-.0326.0937-.54a2.7164,2.7164,0,0,0,1.0647.6233,1.0115,1.0115,0,0,0,.8-.0908,1.3086,1.3086,0,0,0,.5114-.6726,2.9535,2.9535,0,0,0,.1823-1.0727Zm4.6384,2.9339H17.8969v.7357a.4952.4952,0,0,1-.1836.4091.6742.6742,0,0,1-.4375.1449h-.2292a.6155.6155,0,0,1-.4214-.1449.516.516,0,0,1-.17-.4091V18.95h2.5435V18.049c0-.3371-.0049-.6628-.016-.9734a3.7639,3.7639,0,0,0-.0778-.7279,1.0828,1.0828,0,0,0-.3943-.7144,1.7836,1.7836,0,0,0-.7665-.366,2.393,2.393,0,0,0-.897-.0342,1.7609,1.7609,0,0,0-.7923.3106,1.6858,1.6858,0,0,0-.6224.804,4.1134,4.1134,0,0,0-.191,1.41v2.0152a2.2351,2.2351,0,0,0,.6568,1.8173,1.9724,1.9724,0,0,0,1.2779.5076h.1306a1.9567,1.9567,0,0,0,1.3285-.655,1.5915,1.5915,0,0,0,.4325-1.1627C19.05,20.1264,19.033,19.9546,18.9986,19.7714Zm-2.3192-3.1562a.6785.6785,0,0,1,.4658-.1714h.0641a.7587.7587,0,0,1,.488.1637.55.55,0,0,1,.2.4445l-.0332.8H16.4564l.032-.8A.5689.5689,0,0,1,16.6794,16.6152Zm-4.0925,4.3515a.7586.7586,0,0,1-.4583-.1486.4211.4211,0,0,1-.1959-.3436V16.6734a.444.444,0,0,1,.1959-.3509.7255.7255,0,0,1,.4583-.1563.718.718,0,0,1,.4548.1563.4458.4458,0,0,1,.2.3509v3.8011a.4246.4246,0,0,1-.2.3436A.7533.7533,0,0,1,12.5869,20.9667Zm2.6544-12.17a2.6465,2.6465,0,0,1-.4313.5065,1.0224,1.0224,0,0,1-.5607.1644,1.065,1.065,0,0,1-.6087-.1644,1.2454,1.2454,0,0,1-.3685-.4421.992.992,0,0,1-.0775-.2716,2.1237,2.1237,0,0,0-.0506-.27,2.6076,2.6076,0,0,1-.0309-.4445V2.6529H14.49v5.208a.4773.4773,0,0,0,.1417.3448.5272.5272,0,0,0,.3858.147.55.55,0,0,0,.3832-.147.4535.4535,0,0,0,.1639-.3448V2.6529H16.84V9.3363H15.2118Zm-3.4725.0326a1.4411,1.4411,0,0,1-.6211.54,2.0459,2.0459,0,0,1-.9131.195A2.67,2.67,0,0,1,9.2759,9.4a.9972.9972,0,0,1-.5916-.4727,2.3545,2.3545,0,0,1-.3228-.74,7.0576,7.0576,0,0,1-.0961-1.3426V5.076a5.9112,5.9112,0,0,1,.16-1.4892,1.5071,1.5071,0,0,1,.6259-.87,1.78,1.78,0,0,1,1.1042-.3285,2.2712,2.2712,0,0,1,.9919.1962,1.3907,1.3907,0,0,1,.6543.5736,2.1917,2.1917,0,0,1,.29.6729,5.249,5.249,0,0,1,.0949,1.0988v1.718a6.9244,6.9244,0,0,1-.0949,1.3466A1.9752,1.9752,0,0,1,11.7688,8.829Zm-.8811-4.6381a.68.68,0,0,0-.1984-.4983.6215.6215,0,0,0-.4547-.206.6133.6133,0,0,0-.4547.206.6829.6829,0,0,0-.2022.4983V7.7457a.6625.6625,0,0,0,.1936.4678.6137.6137,0,0,0,.4621.2031.6749.6749,0,0,0,.6543-.6709ZM6.5538,9.5329H4.9863v-5.13L3.0183-.003H4.7312l.98,3.2926L6.6856-.003h1.71L6.5538,4.4026Z" transform="translate(0.1955 0.003)"/></svg>